<svg width="24" height="25" viewBox="0 0 24 25" fill="none" xmlns="http://www.w3.org/2000/svg">
<path d="M12 0.840767C5.37 0.840767 0 6.21377 0 12.8408C0 18.1438 3.438 22.6408 8.205 24.2258C8.805 24.3388 9.025 23.9678 9.025 23.6488C9.025 23.3638 9.015 22.6088 9.01 21.6088C5.672 22.3328 4.968 19.9988 4.968 19.9988C4.422 18.6138 3.633 18.2438 3.633 18.2438C2.546 17.4998 3.717 17.5148 3.717 17.5148C4.922 17.5988 5.555 18.7508 5.555 18.7508C6.625 20.5858 8.364 20.0558 9.05 19.7488C9.158 18.9728 9.467 18.4438 9.81 18.1438C7.145 17.8438 4.344 16.8118 4.344 12.2138C4.344 10.9038 4.809 9.83377 5.579 8.99377C5.444 8.69077 5.039 7.47077 5.684 5.81777C5.684 5.81777 6.689 5.49577 8.984 7.04777C9.944 6.78077 10.964 6.64877 11.984 6.64277C13.004 6.64877 14.024 6.78077 14.984 7.04777C17.264 5.49577 18.269 5.81777 18.269 5.81777C18.914 7.47077 18.509 8.69077 18.389 8.99377C19.154 9.83377 19.619 10.9038 19.619 12.2138C19.619 16.8238 16.814 17.8388 14.144 18.1338C14.564 18.4938 14.954 19.2298 14.954 20.3538C14.954 21.9598 14.939 23.2498 14.939 23.6398C14.939 23.9548 15.149 24.3298 15.764 24.2098C20.565 22.6358 24 18.1358 24 12.8408C24 6.21377 18.627 0.840767 12 0.840767Z" fill="#EBBAB8"/>
</svg>
