<svg width="24" height="21" viewBox="0 0 24 21" fill="none" xmlns="http://www.w3.org/2000/svg">
<path d="M23.954 3.11314C23.069 3.50214 22.124 3.76714 21.129 3.88814C22.143 3.27714 22.923 2.31414 23.292 1.16514C22.341 1.72014 21.287 2.12414 20.165 2.34914C19.269 1.39014 17.992 0.790138 16.574 0.790138C13.857 0.790138 11.654 2.99314 11.654 5.70714C11.654 6.09714 11.699 6.47214 11.781 6.83114C7.691 6.63814 4.066 4.67414 1.64 1.70514C1.213 2.42714 0.974 3.26614 0.974 4.18014C0.974 5.89014 1.844 7.39314 3.162 8.27614C2.355 8.25014 1.596 8.02814 0.934 7.66014V7.72114C0.934 10.1061 2.627 12.0951 4.88 12.5481C4.467 12.6591 4.031 12.7191 3.584 12.7191C3.27 12.7191 2.969 12.6891 2.668 12.6331C3.299 14.5861 5.113 16.0101 7.272 16.0501C5.592 17.3691 3.463 18.1551 1.17 18.1551C0.78 18.1551 0.391 18.1321 0 18.0881C2.189 19.4821 4.768 20.2971 7.557 20.2971C16.611 20.2971 21.556 12.8011 21.556 6.31114C21.556 6.10214 21.556 5.89114 21.541 5.68114C22.502 4.99214 23.341 4.12114 24.001 3.13314L23.954 3.11314Z" fill="#EBBAB8"/>
</svg>
