<svg width="600" height="337" viewBox="0 0 800 600" fill="none" xmlns="http://www.w3.org/2000/svg">
<path fill-rule="evenodd" clip-rule="evenodd" d="M229.192 19L251.017 42.3302L249.607 43.6492L229.23 21.8666L209.923 43.6303L208.479 42.3491L229.192 19Z" fill="none" stroke="#265F58" stroke-width="1"></path>
<path d="M10 448.267H790V581.484H10V448.267Z" fill="none" stroke="#265F58" stroke-width="1"></path>
<path d="M10 435.13H790V448.267H10V435.13Z" fill="none" stroke="#265F58" stroke-width="1"></path>
<path d="M742.599 513.927C742.599 515.842 619.586 516.535 467.542 516.535C315.498 516.535 180.433 514.633 180.433 512.718C180.433 511.82 210.151 497.727 257.399 497.193C310.878 496.589 371.257 497.193 451.982 497.193C529.709 497.193 608.9 496.321 658.897 497.193C706.699 498.027 742.599 512.991 742.599 513.927Z" fill="black" fill-opacity="0.22" stroke="#265F58" stroke-width="1"></path>
<path d="M255.826 473.088H266.504V498.386H255.826V473.088Z" fill="none" stroke="#265F58" stroke-width="1"></path>
<path d="M661.601 473.088H672.279V498.385H661.601V473.088Z" fill="none" stroke="#265F58" stroke-width="1"></path>
<path d="M234.035 487.568H246.868V512.866H234.035V487.568Z" fill="none" stroke="#265F58" stroke-width="1"></path>
<path d="M681.236 487.568H694.07V512.865H681.236V487.568Z" fill="none" stroke="#265F58" stroke-width="1"></path>
<path d="M73.9838 37.772H379.91V195.135H73.9838V37.772Z" fill="white" stroke="#265F58" stroke-width="1"></path>
<path d="M123.659 118.686C96.8522 108.81 79.5688 117.315 74.278 122.801V181.855H250.051H377.032V118.686C355.672 112.808 309.379 123.201 289.628 120.127C250.051 113.968 157.168 131.032 123.659 118.686Z" fill="none" stroke="#265F58" stroke-width="1"></path>
<path d="M173.213 121.255C173.213 130.995 160.169 138.89 160.169 138.89C160.169 138.89 146.605 130.995 146.605 121.255C146.605 111.516 160.169 94.3916 160.169 94.3916C160.169 94.3916 173.213 111.516 173.213 121.255Z" fill="#98EED5" stroke="#265F58" stroke-width="1"></path>
<path d="M157.46 134.418H162.357V164.632H157.46V134.418Z" fill="#98EED5" stroke="#265F58" stroke-width="1"></path>
<path d="M260.931 121.256C260.931 130.995 247.897 138.89 247.897 138.89C247.897 138.89 234.344 130.995 234.344 121.256C234.344 111.517 247.897 94.3916 247.897 94.3916C247.897 94.3916 260.931 111.517 260.931 121.256Z" fill="#98EED5" stroke="#265F58" stroke-width="1"></path>
<path d="M245.189 134.418H250.086V164.632H245.189V134.418Z" fill="#98EED5" stroke="#265F58" stroke-width="1"></path>
<path d="M13.8614 287.054H299.604V343.044H13.8614V287.054Z" fill="#98EED5" stroke="#265F58" stroke-width="1"></path>
<path d="M13.8614 287.054H299.604V296.707H13.8614V287.054Z" fill="none" stroke="#265F58" stroke-width="1"></path>
<path d="M235.78 339.381C235.78 293.583 272.907 256.456 318.705 256.456H609.929C655.727 256.456 692.853 293.583 692.853 339.381V399.6C692.853 445.398 655.727 482.525 609.929 482.525H318.705C272.906 482.525 235.78 445.398 235.78 399.6V339.381Z" fill="#98EED5" stroke="#265F58" stroke-width="1"></path>
<path d="M235.78 339.381C235.78 293.583 272.907 256.456 318.705 256.456H609.929C655.727 256.456 692.853 293.583 692.853 339.381V399.6C692.853 445.398 655.727 482.525 609.929 482.525H318.705C272.906 482.525 235.78 445.398 235.78 399.6V339.381Z" fill="#98EED5" stroke="#265F58" stroke-width="1"></path>
<path d="M235.78 339.381C235.78 293.583 272.907 256.456 318.705 256.456H609.929C655.727 256.456 692.853 293.583 692.853 339.381V399.6C692.853 445.398 655.727 482.525 609.929 482.525H318.705C272.906 482.525 235.78 445.398 235.78 399.6V339.381Z" fill="black" fill-opacity="0.19" stroke="#265F58" stroke-width="1"></path>
<path d="M235.086 408.485C235.086 406.849 236.412 405.523 238.047 405.523H677.552C679.187 405.523 680.513 406.849 680.513 408.485V489.435C680.513 491.071 679.187 492.397 677.552 492.397H238.047C236.412 492.397 235.086 491.071 235.086 489.435V408.485Z" fill="#98EED5" stroke="#265F58" stroke-width="1"></path>
<path d="M660.835 388.741C660.835 375.111 671.884 364.061 685.515 364.061H711.182C724.812 364.061 735.862 375.111 735.862 388.741V482.525C735.862 487.977 731.442 492.397 725.99 492.397H660.835V388.741Z" fill="#98EED5" stroke="#265F58" stroke-width="1"></path>
<path d="M192.243 388.742C192.243 375.111 203.292 364.062 216.923 364.062H242.59C256.22 364.062 267.27 375.111 267.27 388.742V492.397H202.115C196.663 492.397 192.243 487.978 192.243 482.525V388.742Z" fill="#98EED5" stroke="#265F58" stroke-width="1"></path>
<path d="M631.499 95.0591H620.899L638.139 134.761H648.739L631.499 95.0591Z" fill="#98EED5" stroke="#265F58" stroke-width="1"></path>
<path d="M511.339 134.761H786.139V182.358H511.339V134.761Z" fill="#98EED5" stroke="#265F58" stroke-width="1"></path>
<path d="M545.395 256.456C544.064 262.55 520.193 262.309 495.237 262.058C490.216 262.007 485.151 261.956 480.218 261.956L479.27 262.027C442.571 264.769 439.005 265.036 422.806 257.675C422.806 257.265 422.871 256.858 422.999 256.456H545.395Z" fill="black" fill-opacity="0.22" stroke="#265F58" stroke-width="1"></path>
<path d="M500.396 134.761H786.139V144.415H500.396V134.761Z" fill="none" stroke="#265F58" stroke-width="1"></path>
<path fill-rule="evenodd" clip-rule="evenodd" d="M657.071 322.382C660.665 325.122 661.358 330.256 658.619 333.85L622.672 381.016L584.631 372.595C580.219 371.619 577.434 367.25 578.41 362.838C579.387 358.425 583.756 355.64 588.168 356.617L615.996 362.776L645.603 323.93C648.342 320.336 653.477 319.643 657.071 322.382Z" fill="#D69962" stroke="#265F58" stroke-width="1"></path>
<path fill-rule="evenodd" clip-rule="evenodd" d="M658.25 320.078C663.117 323.468 664.314 330.162 660.923 335.029L644.801 358.17L627.177 345.891L643.299 322.75C646.69 317.883 653.384 316.687 658.25 320.078Z" fill="#DEDEDE" stroke="#265F58" stroke-width="1"></path>
<path d="M457.774 427.848C457.774 429.588 444.162 430.999 427.371 430.999C410.579 430.999 396.967 429.588 396.967 427.848C396.967 426.107 410.579 424.696 427.371 424.696C444.162 424.696 457.774 426.107 457.774 427.848Z" fill="black" fill-opacity="0.22" stroke="#265F58" stroke-width="1"></path>
<path fill-rule="evenodd" clip-rule="evenodd" d="M536.743 416.592C520.383 416.752 502.518 416.84 483.809 416.84C405.33 416.84 341.71 415.288 341.71 413.373C341.71 411.458 405.33 409.905 483.809 409.905C548.45 409.905 603.011 410.959 620.242 412.4C629.495 412.653 635.645 413.179 635.703 413.89C635.861 415.798 611.536 419.364 581.373 421.854C550.446 424.406 508.91 421.08 536.743 416.592Z" fill="black" fill-opacity="0.22" stroke="#265F58" stroke-width="1"></path>
<path d="M589.313 73.1699H640.639L630.903 134.761H579.577L589.313 73.1699Z" fill="#98EED5" stroke="#265F58" stroke-width="1"></path>
<path fill-rule="evenodd" clip-rule="evenodd" d="M440.24 401.903C440.334 398.174 437.387 395.075 433.658 394.981L378.83 393.599C375.101 393.505 372.001 396.452 371.907 400.181C371.813 403.911 374.76 407.01 378.49 407.104L433.317 408.485C437.047 408.579 440.146 405.632 440.24 401.903Z" fill="#D69962" stroke="#265F58" stroke-width="1"></path>
<path d="M382.952 407.039C382.952 407.039 374.85 402.001 378.125 393.804C362.733 383.856 344.743 363.224 340.806 365.569C336.869 367.914 360.926 406.491 367.21 414.869C373.571 416.035 382.952 407.039 382.952 407.039Z" fill="none" stroke="#265F58" stroke-width="1"></path>
<path fill-rule="evenodd" clip-rule="evenodd" d="M373.051 380.057C372.152 379.806 371.221 380.331 370.97 381.229L366.84 396.005C366.589 396.903 367.114 397.835 368.012 398.086C368.91 398.337 369.842 397.812 370.093 396.914L374.222 382.138C374.473 381.24 373.949 380.308 373.051 380.057Z" fill="none" stroke="#265F58" stroke-width="1"></path>
<path fill-rule="evenodd" clip-rule="evenodd" d="M366.508 371.291C365.61 371.039 364.678 371.564 364.427 372.462L360.298 387.238C360.047 388.136 360.572 389.068 361.47 389.319C362.368 389.57 363.3 389.045 363.551 388.147L367.68 373.371C367.931 372.473 367.406 371.542 366.508 371.291Z" fill="none" stroke="#265F58" stroke-width="1"></path>
<path d="M593.544 79.4351H634.428L626.673 128.496H585.788L593.544 79.4351Z" fill="none" stroke="#265F58" stroke-width="1"></path>
<path d="M745.45 95.0591H734.85L752.09 134.761H762.69L745.45 95.0591Z" fill="#98EED5" stroke="#265F58" stroke-width="1"></path>
<path d="M678.435 73.1699L756.11 73.1699L746.373 134.761H668.699L678.435 73.1699Z" fill="#98EED5" stroke="#265F58" stroke-width="1"></path>
<path d="M682.666 79.4351L748.77 79.4351L741.014 128.496H674.91L682.666 79.4351Z" fill="none" stroke="#265F58" stroke-width="1"></path>
<path d="M682.854 276.885L643.227 276.885C643.227 276.885 643.555 300.03 651.482 308.097C653.673 310.326 682.854 299.35 682.854 299.35L682.854 276.885Z" fill="#FFB877" stroke="#265F58" stroke-width="1"></path>
<path fill-rule="evenodd" clip-rule="evenodd" d="M646.918 285.122C646.533 285.086 646.191 285.37 646.156 285.756C645.995 287.505 645.112 288.824 644.261 289.88C644.122 290.053 643.974 290.229 643.829 290.402C643.56 290.723 643.3 291.033 643.117 291.294C642.969 291.503 642.821 291.747 642.741 292.009C642.655 292.289 642.637 292.632 642.817 292.966C643.046 293.39 643.476 293.709 643.857 293.938C644.262 294.182 644.729 294.392 645.158 294.562C645.59 294.733 646.001 294.87 646.303 294.964C646.455 295.011 646.58 295.048 646.669 295.073C646.713 295.086 646.748 295.096 646.772 295.102L646.8 295.11L646.808 295.112L646.811 295.113L646.812 295.113C646.812 295.113 646.812 295.113 646.992 294.436L646.812 295.113C647.186 295.213 647.57 294.99 647.669 294.615C647.769 294.241 647.546 293.857 647.172 293.758L647.166 293.756L647.144 293.75C647.123 293.745 647.093 293.736 647.054 293.725C646.975 293.702 646.86 293.669 646.72 293.625C646.44 293.538 646.064 293.412 645.674 293.258C645.281 293.102 644.892 292.925 644.58 292.736C644.324 292.583 644.176 292.455 644.101 292.369C644.127 292.312 644.176 292.226 644.264 292.101C644.417 291.883 644.608 291.656 644.842 291.377C644.994 291.197 645.164 290.995 645.352 290.761C646.256 289.64 647.353 288.053 647.552 285.884C647.588 285.499 647.304 285.157 646.918 285.122Z" fill="#474747" stroke="#265F58" stroke-width="1"></path>
<path d="M692.056 325.021C688.489 318.363 678.473 310.236 679.647 292.197L669.349 302.451C666.823 304.507 663.409 301.551 665.252 303.216C667.095 304.88 663.796 326.273 661.012 328.736L670.909 326.897C675.764 327.888 695.622 331.678 692.056 325.021Z" fill="#FFB877" stroke="#265F58" stroke-width="1"></path>
<path d="M672.182 302.675L665.7 305.326C665.7 305.326 665.283 314.567 664.942 316.516C664.942 316.516 670.564 306.071 672.182 302.675Z" fill="#474747" stroke="#265F58" stroke-width="1"></path>
<path fill-rule="evenodd" clip-rule="evenodd" d="M646.461 300.743C649.928 300.822 651.684 298.444 652.004 297.2L650.646 296.85C650.469 297.54 649.232 299.403 646.493 299.341L646.461 300.743Z" fill="#474747" stroke="#265F58" stroke-width="1"></path>
<path d="M312.641 91.5439H377.032V124.433H312.641V91.5439Z" fill="none" stroke="#265F58" stroke-width="1"></path>
<path d="M308.091 113.003H377.031V155.915H308.091V113.003Z" fill="none" stroke="#265F58" stroke-width="1"></path>
<path d="M123.659 151.468C96.8522 141.278 79.5688 150.053 74.278 155.714V190.893H250.051H377.032V151.468C355.672 145.402 309.379 156.125 289.628 152.954C250.051 146.599 157.168 164.205 123.659 151.468Z" fill="none" stroke="#265F58" stroke-width="1"></path>
<path d="M135.849 100.864C135.849 116.686 114.675 129.512 114.675 129.512C114.675 129.512 92.6577 116.686 92.6577 100.864C92.6577 85.0426 114.675 57.2227 114.675 57.2227C114.675 57.2227 135.849 85.0426 135.849 100.864Z" fill="#98EED5" stroke="#265F58" stroke-width="1"></path>
<path d="M110.774 123.158H117.732V166.09H110.774V123.158Z" fill="#98EED5" stroke="#265F58" stroke-width="1"></path>
<path d="M226.469 100.864C226.469 116.686 205.295 129.512 205.295 129.512C205.295 129.512 183.278 116.686 183.278 100.864C183.278 85.0426 205.295 57.2227 205.295 57.2227C205.295 57.2227 226.469 85.0426 226.469 100.864Z" fill="#98EED5" stroke="#265F58" stroke-width="1"></path>
<path d="M201.394 123.158H208.352V166.09H201.394V123.158Z" fill="#98EED5" stroke="#265F58" stroke-width="1"></path>
<path d="M312.641 91.5854L331.733 122.712H289.978L312.641 91.5854Z" fill="none" stroke="#265F58" stroke-width="1"></path>
<path d="M346.91 82.4189H359.562V104.316H346.91V82.4189Z" fill="none" stroke="#265F58" stroke-width="1"></path>
<path d="M665.394 318.392C662.697 317.33 654.324 317.95 650.475 318.392L651.599 323.706L657.628 325.648C661.341 323.672 668.092 319.455 665.394 318.392Z" fill="#DEDEDE" stroke="#265F58" stroke-width="1"></path>
<path d="M588.905 380.72C596.902 380.593 603.487 386.973 603.613 394.969C603.74 402.966 597.36 409.551 589.364 409.677L403.992 412.615C395.996 412.741 389.411 406.362 389.284 398.366C389.157 390.369 395.537 383.784 403.533 383.658L588.905 380.72Z" fill="none" stroke="#265F58" stroke-width="1"></path>
<path d="M566.735 357.476C572.976 353.554 580.083 351.096 586.661 356.234C590.831 359.49 582.543 368.201 582.543 368.201C582.543 368.201 579.36 367.91 574.349 368.215C569.338 368.519 568.631 371.39 562.215 368.598C555.799 365.807 560.495 361.399 566.735 357.476Z" fill="#D69962" stroke="#265F58" stroke-width="1"></path>
<path fill-rule="evenodd" clip-rule="evenodd" d="M465.426 390.921C463.064 388.34 459.057 388.163 456.476 390.525L443.656 404.556C439.413 408.74 436.407 415.003 438.769 417.584C441.131 420.164 448.282 415.2 450.863 412.838L465.03 399.87C467.611 397.508 467.788 393.501 465.426 390.921Z" fill="#FFB877" stroke="#265F58" stroke-width="1"></path>
<path d="M453.711 409.054C453.711 409.054 444.979 416.121 439.851 408.738C422.76 416.237 396.809 419.518 396.593 424.179C396.377 428.841 441.708 428.88 452.353 428.24C456.913 423.489 453.711 409.054 453.711 409.054Z" fill="none" stroke="#265F58" stroke-width="1"></path>
<path fill-rule="evenodd" clip-rule="evenodd" d="M423.577 408.002C422.994 408.56 422.973 409.486 423.53 410.069L432.705 419.672C433.263 420.256 434.188 420.277 434.772 419.719C435.356 419.161 435.377 418.236 434.819 417.652L425.644 408.05C425.086 407.466 424.161 407.445 423.577 408.002Z" fill="none" stroke="#265F58" stroke-width="1"></path>
<path fill-rule="evenodd" clip-rule="evenodd" d="M414.161 409C413.577 409.557 413.556 410.483 414.114 411.066L423.289 420.669C423.846 421.253 424.772 421.274 425.355 420.716C425.939 420.159 425.96 419.233 425.402 418.649L416.228 409.047C415.67 408.463 414.745 408.442 414.161 409Z" fill="none" stroke="#265F58" stroke-width="1"></path>
<path d="M524.036 340.422C551.068 354.689 585.377 376.527 595.478 372.404C602.986 369.339 610.573 371.001 610.573 371.001C622.273 371.001 631.759 380.487 631.759 392.187C631.759 403.888 622.273 413.373 610.573 413.373H583.6C571.9 413.373 514.236 368.47 514.236 368.47C514.236 368.47 500.508 328.004 524.036 340.422Z" fill="none" stroke="#265F58" stroke-width="1"></path>
<path d="M600.303 416.043C596.742 416.043 603.851 382.769 598.09 367.954C608.871 369.6 612.183 367.954 616.931 367.954C622.441 367.954 627.179 362.835 630.388 349.009C633.598 335.182 641.695 322.668 658.435 318.948C667.559 316.92 678.301 317.161 684.474 327.038C690.647 336.914 672.042 368.304 664.882 382.871C657.721 397.439 636.342 416.043 600.303 416.043Z" fill="#F8F8F8" stroke="#265F58" stroke-width="1"></path>
<path d="M636.037 345.512L639.7 348.657L635.145 350.257L636.037 345.512Z" fill="#98EED5" stroke="#265F58" stroke-width="1"></path>
<path d="M622.964 388.768L626.627 391.913L622.071 393.513L622.964 388.768Z" fill="#98EED5" stroke="#265F58" stroke-width="1"></path>
<path d="M649.409 361.2L648.54 365.949L644.861 362.822L649.409 361.2Z" fill="#98EED5" stroke="#265F58" stroke-width="1"></path>
<path d="M655.657 331.172L655.941 334.274L653.112 332.969L655.657 331.172Z" fill="#98EED5" stroke="#265F58" stroke-width="1"></path>
<path d="M609.644 397.964L609.928 401.066L607.099 399.761L609.644 397.964Z" fill="#98EED5" stroke="#265F58" stroke-width="1"></path>
<path d="M652.026 392.179L652.31 395.281L649.481 393.976L652.026 392.179Z" fill="#98EED5" stroke="#265F58" stroke-width="1"></path>
<path fill-rule="evenodd" clip-rule="evenodd" d="M650.876 344.013C651.028 343.794 651.329 343.74 651.548 343.893L654.6 346.017C654.819 346.17 654.873 346.47 654.72 346.689C654.568 346.908 654.267 346.962 654.049 346.81L650.996 344.685C650.778 344.533 650.724 344.232 650.876 344.013Z" fill="#98EED5" stroke="#265F58" stroke-width="1"></path>
<path fill-rule="evenodd" clip-rule="evenodd" d="M651.938 342.487C652.09 342.268 652.391 342.214 652.61 342.366L655.662 344.491C655.881 344.643 655.935 344.944 655.783 345.163C655.63 345.382 655.33 345.435 655.111 345.283L652.059 343.159C651.84 343.006 651.786 342.706 651.938 342.487Z" fill="#98EED5" stroke="#265F58" stroke-width="1"></path>
<path d="M38.3091 220.951H46.9815V287.054H38.3091V220.951Z" fill="none" stroke="#265F58" stroke-width="1"></path>
<path d="M101.464 287.054L101.464 278.381L167.567 278.381L167.567 287.054L101.464 287.054Z" fill="#98EED5" stroke="#265F58" stroke-width="1"></path>
<path d="M97.0002 278.381L97.0002 269.709L163.103 269.709L163.103 278.381L97.0002 278.381Z" fill="#98EED5" stroke="#265F58" stroke-width="1"></path>
<path d="M107.965 269.708L107.965 261.036L174.068 261.036L174.068 269.708L107.965 269.708Z" fill="#98EED5" stroke="#265F58" stroke-width="1"></path>
<path d="M28.681 220.951H37.3534V287.054H28.681V220.951Z" fill="none" stroke="#265F58" stroke-width="1"></path>
<path d="M19.0529 220.951H27.7253V287.054H19.0529V220.951Z" fill="none" stroke="#265F58" stroke-width="1"></path>
<path d="M503.814 339.356C509.945 334.22 519.078 335.028 524.213 341.159C529.348 347.289 528.541 356.422 522.41 361.557L465.689 409.066C459.558 414.201 450.425 413.394 445.29 407.263C440.155 401.132 440.962 391.999 447.093 386.864L503.814 339.356Z" fill="none" stroke="#265F58" stroke-width="1"></path>
<path d="M585.097 379.906C591.808 384.256 593.722 393.222 589.372 399.933C585.022 406.644 576.055 408.558 569.344 404.208L505.869 363.064C499.158 358.714 497.244 349.747 501.594 343.036C505.944 336.325 514.91 334.412 521.621 338.761L585.097 379.906Z" fill="none" stroke="#265F58" stroke-width="1"></path>
<path d="M662.35 312.304C662.731 314.719 659.014 319.346 657.108 321.359C670.451 316.657 681.093 327.341 684.746 333.271C686.144 330.857 685.329 316.593 684.746 309.763C684.27 313.734 670.768 309.604 666.48 308.81C662.191 308.016 661.873 309.287 662.35 312.304Z" fill="#F8F8F8" stroke="#265F58" stroke-width="1"></path>
<path fill-rule="evenodd" clip-rule="evenodd" d="M565.091 367.953C563.861 368.485 562.432 367.919 561.9 366.689L561.203 365.079L558.779 365.291C559.164 366.469 558.595 367.768 557.435 368.27C556.205 368.803 554.776 368.237 554.244 367.007L528.831 308.294C526.69 303.348 538.683 306.564 540.127 309.899L566.355 364.761C566.887 365.991 566.322 367.42 565.091 367.953Z" fill="none" stroke="#265F58" stroke-width="1"></path>
<path d="M426.15 249.471C426.15 249.471 425.217 248.18 422.206 249.04C423.213 246.593 426.15 244.021 428.157 244.021L430.882 251.837C425.934 252.913 424.416 252.468 422.851 252.913C423.347 249.561 426.15 249.471 426.15 249.471Z" fill="#383838" stroke="#265F58" stroke-width="1"></path>
<path d="M431.284 221.681L434.146 239.233L445.165 233.264L431.284 221.681Z" fill="#0D0D0D" stroke="#265F58" stroke-width="1"></path>
<path d="M430.281 252.291C427.251 251.825 420.153 254.735 423.845 258.175H438.706C437.394 256.378 433.311 252.757 430.281 252.291Z" fill="none" stroke="#265F58" stroke-width="1"></path>
<path d="M462.148 245.405C462.148 259.882 487.463 257.69 509.925 257.69C521.185 257.69 526.306 260.493 534.305 248.426C537.043 244.296 535.948 230.84 523.473 224.841C503.127 215.057 459.054 232.173 462.148 245.405Z" fill="#3F3F3F" stroke="#265F58" stroke-width="1"></path>
<path d="M426.514 248.976C426.514 259.405 442.259 258.126 458.44 258.126C474.621 258.126 478.393 259.405 478.393 248.976C478.393 238.548 471.113 229.85 454.932 229.85C438.751 229.85 426.514 238.548 426.514 248.976Z" fill="#515151" stroke="#265F58" stroke-width="1"></path>
<path fill-rule="evenodd" clip-rule="evenodd" d="M525.62 244.576C525.951 243.011 527.488 242.011 529.053 242.342C530.458 242.639 531.901 242.902 533.376 243.171C533.975 243.28 534.58 243.39 535.189 243.504C537.244 243.888 539.337 244.311 541.172 244.853C542.943 245.376 544.818 246.104 546.203 247.274C546.931 247.888 547.606 248.693 548.009 249.731C548.422 250.794 548.476 251.914 548.235 253.013C547.785 255.073 546.815 256.672 545.223 257.663C543.807 258.544 542.235 258.703 541.29 258.794C541.156 258.806 541.031 258.818 540.913 258.829C539.999 258.915 539.53 258.959 539.101 259.114C538.828 259.212 538.596 259.341 538.341 259.838C537.765 260.961 537.917 261.362 537.999 261.578L538.001 261.582C538.086 261.806 538.245 262.094 538.557 262.537C538.711 262.755 538.88 262.982 539.083 263.253C539.097 263.271 539.11 263.289 539.124 263.307C539.31 263.554 539.521 263.835 539.731 264.128C540.663 265.426 541.733 267.168 542.127 269.616C542.518 272.045 542.2 274.87 540.933 278.334C540.384 279.837 538.72 280.609 537.218 280.059C535.716 279.51 534.944 277.847 535.494 276.344C536.522 273.534 536.601 271.733 536.409 270.538C536.219 269.362 535.724 268.479 535.025 267.504C534.853 267.265 534.678 267.032 534.485 266.775L534.453 266.732C534.254 266.467 534.033 266.172 533.82 265.87C533.399 265.271 532.923 264.525 532.587 263.641C531.826 261.639 531.991 259.524 533.189 257.193C534.158 255.305 535.579 254.226 537.139 253.664C538.323 253.238 539.604 253.127 540.422 253.056C540.536 253.046 540.641 253.037 540.736 253.028C541.732 252.932 542.029 252.829 542.161 252.746C542.184 252.732 542.219 252.709 542.276 252.62C542.343 252.516 542.465 252.276 542.572 251.797C542.548 251.772 542.514 251.739 542.467 251.699C542.033 251.334 541.119 250.877 539.531 250.408C538.006 249.957 536.169 249.58 534.125 249.198C533.572 249.095 533.001 248.99 532.421 248.885C530.914 248.61 529.344 248.324 527.854 248.009C526.289 247.678 525.289 246.141 525.62 244.576ZM542.626 251.862C542.626 251.862 542.626 251.861 542.625 251.859C542.626 251.861 542.626 251.862 542.626 251.862Z" fill="#3F3F3F" stroke="#265F58" stroke-width="1"></path>
<path d="M465.497 218.534C465.497 218.534 467.152 237.285 465.497 237.996C463.841 238.707 464.596 233.565 453.011 233.007L465.497 218.534Z" fill="#3F3F3F" stroke="#265F58" stroke-width="1"></path>
<path fill-rule="evenodd" clip-rule="evenodd" d="M435.295 244.837C435.561 244.857 435.76 245.089 435.739 245.355C435.669 246.271 435.776 247.612 436.291 248.673C436.545 249.197 436.89 249.634 437.344 249.928C437.793 250.219 438.382 250.392 439.166 250.339C439.432 250.321 439.663 250.522 439.681 250.788C439.699 251.054 439.498 251.284 439.232 251.302C438.261 251.368 437.461 251.154 436.819 250.738C436.182 250.325 435.733 249.734 435.422 249.094C434.807 247.828 434.699 246.299 434.777 245.281C434.797 245.015 435.029 244.816 435.295 244.837Z" fill="#0D0D0D" stroke="#265F58" stroke-width="1"></path>
<path fill-rule="evenodd" clip-rule="evenodd" d="M435.179 244.837C434.914 244.857 434.715 245.089 434.735 245.355C434.806 246.271 434.699 247.612 434.184 248.673C433.929 249.197 433.584 249.634 433.13 249.928C432.681 250.219 432.093 250.392 431.308 250.339C431.042 250.321 430.812 250.522 430.794 250.788C430.776 251.054 430.977 251.284 431.243 251.302C432.213 251.368 433.013 251.154 433.655 250.738C434.292 250.325 434.741 249.734 435.052 249.094C435.667 247.828 435.776 246.299 435.698 245.281C435.677 245.015 435.445 244.816 435.179 244.837Z" fill="#0D0D0D" stroke="#265F58" stroke-width="1"></path>
<path d="M435.184 247.326C433.97 247.326 435.416 246.374 432.547 245.28C431.655 244.662 433.35 243.236 435.853 243.236C438.172 243.236 439.996 245.081 438.65 245.28C436.49 245.598 436.39 247.326 435.184 247.326Z" fill="#0D0D0D" stroke="#265F58" stroke-width="1"></path>
<path fill-rule="evenodd" clip-rule="evenodd" d="M442.977 242.884C443.129 242.665 443.43 242.611 443.649 242.764C444.471 243.337 446.168 243.929 448.147 242.746C448.376 242.609 448.672 242.683 448.809 242.912C448.946 243.141 448.871 243.437 448.642 243.574C446.264 244.997 444.154 244.292 443.097 243.556C442.878 243.403 442.825 243.103 442.977 242.884Z" fill="#0D0D0D" stroke="#265F58" stroke-width="1"></path>
<path fill-rule="evenodd" clip-rule="evenodd" d="M426.319 241.834C426.471 241.615 426.772 241.562 426.991 241.714C427.813 242.287 429.509 242.88 431.489 241.696C431.718 241.559 432.014 241.634 432.151 241.862C432.288 242.091 432.213 242.387 431.984 242.524C429.606 243.947 427.496 243.243 426.439 242.506C426.22 242.354 426.167 242.053 426.319 241.834Z" fill="#0D0D0D" stroke="#265F58" stroke-width="1"></path>
<path d="M473.936 252.849C471.347 252.451 468.432 255.232 470.772 257.147C473.824 259.643 479.947 257.833 481.228 257.147C480.107 255.611 476.526 253.248 473.936 252.849Z" fill="none" stroke="#265F58" stroke-width="1"></path>
<path d="M529.101 257.483C525.903 259.704 508.28 258.576 502.369 257.56L497.232 253.153C501.97 253.079 511.934 252.708 513.889 251.82C515.843 250.932 508.541 245.745 508.606 241.067C508.741 231.432 524.092 223.123 531.767 232.561C535.601 237.275 535.86 241.049 535.601 246.046C535.12 248.674 532.299 255.262 529.101 257.483Z" fill="#515151" stroke="#265F58" stroke-width="1"></path>
<path d="M496.508 252.202C493.477 251.736 489.622 256.336 492.058 257.736C492.058 257.736 495.029 258.046 496.94 258.081C499.52 258.128 503.538 257.736 503.538 257.736C503.538 255.806 499.538 252.668 496.508 252.202Z" fill="none" stroke="#265F58" stroke-width="1"></path>
<path d="M440.362 247.612C440.34 247.745 440.431 247.872 440.565 247.894C440.699 247.915 440.825 247.825 440.847 247.691C440.868 247.557 440.778 247.431 440.644 247.409C440.51 247.387 440.384 247.478 440.362 247.612Z" fill="#0D0D0D" stroke="#265F58" stroke-width="1"></path>
<path d="M437.898 247.833C437.876 247.967 437.967 248.093 438.101 248.115C438.235 248.137 438.361 248.046 438.383 247.912C438.405 247.778 438.314 247.652 438.18 247.63C438.046 247.609 437.92 247.699 437.898 247.833Z" fill="#0D0D0D" stroke="#265F58" stroke-width="1"></path>
<path d="M437.992 246.457C437.97 246.591 438.061 246.717 438.195 246.739C438.329 246.761 438.455 246.67 438.477 246.536C438.498 246.402 438.408 246.276 438.274 246.254C438.14 246.232 438.014 246.323 437.992 246.457Z" fill="#0D0D0D" stroke="#265F58" stroke-width="1"></path>
<path d="M439.383 246.561C439.361 246.695 439.452 246.821 439.586 246.843C439.72 246.865 439.846 246.774 439.868 246.64C439.89 246.506 439.799 246.38 439.665 246.358C439.531 246.336 439.405 246.427 439.383 246.561Z" fill="#0D0D0D" stroke="#265F58" stroke-width="1"></path>
<path d="M436.531 247.61C436.509 247.744 436.6 247.87 436.734 247.892C436.868 247.914 436.994 247.823 437.016 247.689C437.038 247.555 436.947 247.429 436.813 247.407C436.679 247.385 436.553 247.476 436.531 247.61Z" fill="#0D0D0D" stroke="#265F58" stroke-width="1"></path>
<path d="M438.431 249.352C438.409 249.486 438.5 249.612 438.634 249.634C438.767 249.656 438.894 249.565 438.915 249.431C438.937 249.297 438.846 249.171 438.713 249.149C438.579 249.127 438.452 249.218 438.431 249.352Z" fill="#0D0D0D" stroke="#265F58" stroke-width="1"></path>
<path d="M436.997 248.99C436.975 249.124 437.066 249.25 437.2 249.272C437.334 249.294 437.46 249.203 437.482 249.069C437.504 248.935 437.413 248.809 437.279 248.787C437.145 248.765 437.019 248.856 436.997 248.99Z" fill="#0D0D0D" stroke="#265F58" stroke-width="1"></path>
<path d="M440.234 249.148C440.212 249.282 440.303 249.408 440.437 249.43C440.57 249.452 440.697 249.361 440.718 249.227C440.74 249.093 440.649 248.967 440.516 248.945C440.382 248.924 440.255 249.014 440.234 249.148Z" fill="#0D0D0D" stroke="#265F58" stroke-width="1"></path>
<path fill-rule="evenodd" clip-rule="evenodd" d="M451.224 248.821C446.288 247.863 441.41 247.533 438.089 248.027C438.036 248.035 437.987 247.999 437.979 247.946C437.971 247.893 438.008 247.844 438.06 247.836C441.412 247.337 446.314 247.671 451.261 248.631C456.208 249.592 461.212 251.182 464.767 253.201C464.814 253.228 464.83 253.287 464.804 253.333C464.777 253.379 464.718 253.395 464.672 253.369C461.142 251.364 456.16 249.779 451.224 248.821Z" fill="#A6A6A6" stroke="#265F58" stroke-width="1"></path>
<path fill-rule="evenodd" clip-rule="evenodd" d="M451.209 246.748C446.184 246.54 441.312 246.946 438.103 247.933C438.052 247.949 437.998 247.92 437.982 247.869C437.967 247.818 437.995 247.764 438.046 247.749C441.285 246.752 446.182 246.347 451.217 246.555C456.252 246.762 461.438 247.583 465.256 249.047C465.306 249.066 465.331 249.122 465.311 249.172C465.292 249.222 465.237 249.246 465.187 249.227C461.395 247.774 456.232 246.955 451.209 246.748Z" fill="#A6A6A6" stroke="#265F58" stroke-width="1"></path>
<path d="M430.157 247.346C430.157 247.482 430.047 247.592 429.912 247.592C429.776 247.592 429.666 247.482 429.666 247.346C429.666 247.211 429.776 247.101 429.912 247.101C430.047 247.101 430.157 247.211 430.157 247.346Z" fill="#0D0D0D" stroke="#265F58" stroke-width="1"></path>
<path d="M432.553 247.96C432.553 248.096 432.443 248.206 432.307 248.206C432.172 248.206 432.062 248.096 432.062 247.96C432.062 247.825 432.172 247.715 432.307 247.715C432.443 247.715 432.553 247.825 432.553 247.96Z" fill="#0D0D0D" stroke="#265F58" stroke-width="1"></path>
<path d="M432.682 246.587C432.682 246.723 432.572 246.833 432.436 246.833C432.301 246.833 432.191 246.723 432.191 246.587C432.191 246.451 432.301 246.341 432.436 246.341C432.572 246.341 432.682 246.451 432.682 246.587Z" fill="#0D0D0D" stroke="#265F58" stroke-width="1"></path>
<path d="M431.292 246.466C431.292 246.602 431.182 246.712 431.046 246.712C430.911 246.712 430.801 246.602 430.801 246.466C430.801 246.331 430.911 246.221 431.046 246.221C431.182 246.221 431.292 246.331 431.292 246.466Z" fill="#0D0D0D" stroke="#265F58" stroke-width="1"></path>
<path d="M433.938 247.96C433.938 248.096 433.828 248.206 433.692 248.206C433.557 248.206 433.447 248.096 433.447 247.96C433.447 247.825 433.557 247.715 433.692 247.715C433.828 247.715 433.938 247.825 433.938 247.96Z" fill="#0D0D0D" stroke="#265F58" stroke-width="1"></path>
<path d="M431.783 249.374C431.783 249.51 431.673 249.62 431.538 249.62C431.402 249.62 431.292 249.51 431.292 249.374C431.292 249.238 431.402 249.128 431.538 249.128C431.673 249.128 431.783 249.238 431.783 249.374Z" fill="#0D0D0D" stroke="#265F58" stroke-width="1"></path>
<path d="M433.256 249.248C433.256 249.383 433.146 249.493 433.011 249.493C432.875 249.493 432.765 249.383 432.765 249.248C432.765 249.112 432.875 249.002 433.011 249.002C433.146 249.002 433.256 249.112 433.256 249.248Z" fill="#0D0D0D" stroke="#265F58" stroke-width="1"></path>
<path d="M430.036 248.883C430.036 249.019 429.926 249.129 429.791 249.129C429.655 249.129 429.545 249.019 429.545 248.883C429.545 248.748 429.655 248.638 429.791 248.638C429.926 248.638 430.036 248.748 430.036 248.883Z" fill="#0D0D0D" stroke="#265F58" stroke-width="1"></path>
<path fill-rule="evenodd" clip-rule="evenodd" d="M419.158 248.918C424.094 247.959 428.972 247.629 432.293 248.124C432.346 248.132 432.395 248.096 432.403 248.043C432.411 247.99 432.374 247.941 432.322 247.933C428.969 247.434 424.067 247.768 419.121 248.728C414.174 249.689 409.17 251.278 405.614 253.298C405.568 253.324 405.552 253.383 405.578 253.43C405.604 253.476 405.663 253.492 405.71 253.466C409.24 251.46 414.222 249.876 419.158 248.918Z" fill="#A6A6A6" stroke="#265F58" stroke-width="1"></path>
<path fill-rule="evenodd" clip-rule="evenodd" d="M419.173 246.844C424.198 246.637 429.07 247.042 432.279 248.03C432.33 248.045 432.384 248.017 432.4 247.966C432.415 247.915 432.387 247.861 432.336 247.845C429.096 246.849 424.2 246.444 419.165 246.651C414.13 246.859 408.944 247.68 405.126 249.144C405.076 249.163 405.051 249.219 405.07 249.268C405.09 249.318 405.145 249.343 405.195 249.324C408.986 247.871 414.15 247.052 419.173 246.844Z" fill="#A6A6A6" stroke="#265F58" stroke-width="1"></path>
<path fill-rule="evenodd" clip-rule="evenodd" d="M456.344 247.697C455.279 246.802 453.983 246.306 452.66 246.544C452.398 246.591 452.147 246.417 452.1 246.154C452.052 245.892 452.227 245.641 452.489 245.594C454.172 245.292 455.749 245.936 456.965 246.958C458.179 247.978 459.082 249.412 459.428 250.802L459.617 251.562L458.852 251.389C457.55 251.093 455.873 251.089 454.493 251.166C454.119 251.187 453.77 251.214 453.46 251.242C453.889 251.536 454.393 251.909 454.898 252.348C456.187 253.468 457.618 255.126 457.618 257.048V257.795L456.937 257.488C456.784 257.419 456.621 257.342 456.446 257.26C454.87 256.517 452.405 255.355 449.326 256.205C449.069 256.276 448.803 256.125 448.732 255.868C448.661 255.611 448.812 255.345 449.069 255.274C452.288 254.385 454.93 255.481 456.542 256.236C456.229 255.068 455.294 253.97 454.265 253.077C453.649 252.541 453.03 252.106 452.564 251.805C452.331 251.654 452.138 251.538 452.004 251.459C451.937 251.42 451.885 251.391 451.85 251.371L451.811 251.349L451.802 251.344L451.8 251.343L450.518 250.655L451.957 250.441L452.028 250.918C451.957 250.441 451.957 250.441 451.957 250.441L451.961 250.44L451.971 250.439L452.009 250.433C452.041 250.429 452.089 250.422 452.151 250.414C452.273 250.398 452.451 250.376 452.672 250.351C453.114 250.301 453.733 250.242 454.439 250.202C455.584 250.138 456.988 250.124 458.249 250.3C457.862 249.352 457.192 248.41 456.344 247.697Z" fill="black" stroke="#265F58" stroke-width="1"></path>
<path fill-rule="evenodd" clip-rule="evenodd" d="M376.726 46.0149H77.1672V191.004H376.726V46.0149ZM68.9243 37.772V199.247H384.969V37.772H68.9243Z" fill="#98EED5" stroke="#265F58" stroke-width="1"></path>
<path d="M554.079 368.728C554.079 366.326 556.026 364.38 558.427 364.38H618.563C620.964 364.38 622.911 366.326 622.911 368.728C622.911 371.129 620.964 373.075 618.563 373.075H558.427C556.026 373.075 554.079 371.129 554.079 368.728Z" fill="none" stroke="#265F58" stroke-width="1"></path>
<path fill-rule="evenodd" clip-rule="evenodd" d="M676.989 327.237C681.376 329.581 683.032 335.037 680.689 339.424L651.833 393.443C649.491 397.827 644.278 399.817 639.61 398.108L586.505 375.241C575.598 371.248 585.473 359.113 596.38 363.105L639.238 378.792L664.801 330.937C667.145 326.55 672.601 324.893 676.989 327.237Z" fill="#FFB877" stroke="#265F58" stroke-width="1"></path>
<path fill-rule="evenodd" clip-rule="evenodd" d="M678.315 324.755C684.073 327.831 686.247 334.992 683.171 340.75L668.546 368.129L647.693 356.991L662.319 329.611C665.395 323.853 672.557 321.679 678.315 324.755Z" fill="#EEEDED" stroke="#265F58" stroke-width="1"></path>
<path d="M574.512 352.759C583.967 352.264 593.478 353.953 597.644 363.834C600.283 370.096 585.535 374.682 585.535 374.682C585.535 374.682 582.146 372.364 576.334 369.57C570.521 366.777 567.932 369.555 562.481 362.408C557.03 355.261 565.056 353.255 574.512 352.759Z" fill="#FFB877" stroke="#265F58" stroke-width="1"></path>
<path fill-rule="evenodd" clip-rule="evenodd" d="M632.276 368.617C632.23 368.355 632.406 368.105 632.669 368.059L636.586 367.379C636.848 367.334 637.098 367.509 637.144 367.772C637.189 368.035 637.013 368.285 636.751 368.33L632.834 369.01C632.571 369.056 632.321 368.88 632.276 368.617Z" fill="#98EED5" stroke="#265F58" stroke-width="1"></path>
<path fill-rule="evenodd" clip-rule="evenodd" d="M631.936 366.659C631.89 366.396 632.066 366.146 632.329 366.101L636.246 365.421C636.508 365.375 636.758 365.551 636.804 365.814C636.849 366.076 636.673 366.326 636.411 366.372L632.494 367.052C632.231 367.097 631.982 366.921 631.936 366.659Z" fill="#98EED5" stroke="#265F58" stroke-width="1"></path>
<path fill-rule="evenodd" clip-rule="evenodd" d="M639.72 333.389C639.675 333.127 639.851 332.877 640.113 332.831L643.042 332.323C643.305 332.277 643.555 332.453 643.6 332.716C643.646 332.978 643.47 333.228 643.207 333.274L640.278 333.782C640.016 333.828 639.766 333.652 639.72 333.389Z" fill="#98EED5" stroke="#265F58" stroke-width="1"></path>
<path fill-rule="evenodd" clip-rule="evenodd" d="M639.466 331.925C639.42 331.662 639.596 331.412 639.859 331.367L642.788 330.858C643.05 330.813 643.3 330.989 643.346 331.251C643.392 331.514 643.216 331.764 642.953 331.809L640.024 332.318C639.761 332.363 639.512 332.187 639.466 331.925Z" fill="#98EED5" stroke="#265F58" stroke-width="1"></path>
<path fill-rule="evenodd" clip-rule="evenodd" d="M622.784 407.387C622.584 407.211 622.565 406.906 622.741 406.706L625.367 403.722C625.544 403.522 625.849 403.502 626.049 403.678C626.249 403.854 626.268 404.159 626.092 404.359L623.466 407.344C623.29 407.544 622.985 407.563 622.784 407.387Z" fill="#98EED5" stroke="#265F58" stroke-width="1"></path>
<path fill-rule="evenodd" clip-rule="evenodd" d="M621.292 406.074C621.092 405.897 621.073 405.592 621.249 405.392L623.875 402.408C624.051 402.208 624.356 402.189 624.556 402.365C624.757 402.541 624.776 402.846 624.6 403.046L621.974 406.03C621.797 406.23 621.492 406.25 621.292 406.074Z" fill="#98EED5" stroke="#265F58" stroke-width="1"></path>
<path fill-rule="evenodd" clip-rule="evenodd" d="M598.545 385.781C598.581 385.517 598.824 385.332 599.088 385.368L602.605 385.847C602.869 385.883 603.054 386.126 603.018 386.39C602.982 386.655 602.739 386.839 602.475 386.804L598.958 386.325C598.694 386.289 598.509 386.046 598.545 385.781Z" fill="#98EED5" stroke="#265F58" stroke-width="1"></path>
<path fill-rule="evenodd" clip-rule="evenodd" d="M598.784 384.023C598.82 383.758 599.064 383.573 599.328 383.609L602.845 384.088C603.109 384.124 603.294 384.367 603.258 384.632C603.222 384.896 602.978 385.081 602.714 385.045L599.197 384.566C598.933 384.53 598.748 384.287 598.784 384.023Z" fill="#98EED5" stroke="#265F58" stroke-width="1"></path>
<path fill-rule="evenodd" clip-rule="evenodd" d="M669.391 320.329C669.345 320.066 669.521 319.817 669.784 319.771L672.78 319.251C673.042 319.205 673.292 319.381 673.338 319.644C673.383 319.907 673.207 320.156 672.945 320.202L669.949 320.722C669.686 320.768 669.436 320.592 669.391 320.329Z" fill="#98EED5" stroke="#265F58" stroke-width="1"></path>
<path fill-rule="evenodd" clip-rule="evenodd" d="M669.131 318.832C669.085 318.569 669.261 318.319 669.524 318.273L672.52 317.753C672.782 317.708 673.032 317.884 673.078 318.146C673.123 318.409 672.947 318.659 672.685 318.704L669.689 319.225C669.426 319.27 669.176 319.094 669.131 318.832Z" fill="#98EED5" stroke="#265F58" stroke-width="1"></path>
<path fill-rule="evenodd" clip-rule="evenodd" d="M657.318 351.518C657.583 351.547 657.775 351.785 657.746 352.05L657.416 355.073C657.387 355.338 657.149 355.529 656.884 355.5C656.619 355.472 656.428 355.233 656.456 354.968L656.786 351.946C656.815 351.681 657.053 351.489 657.318 351.518Z" fill="#98EED5" stroke="#265F58" stroke-width="1"></path>
<path fill-rule="evenodd" clip-rule="evenodd" d="M658.83 351.683C659.095 351.712 659.286 351.95 659.257 352.215L658.928 355.238C658.899 355.503 658.66 355.694 658.395 355.666C658.13 355.637 657.939 355.398 657.968 355.133L658.298 352.111C658.326 351.846 658.565 351.654 658.83 351.683Z" fill="#98EED5" stroke="#265F58" stroke-width="1"></path>
<path fill-rule="evenodd" clip-rule="evenodd" d="M670.098 347.706C670.332 347.578 670.625 347.664 670.753 347.898L672.21 350.567C672.338 350.801 672.252 351.094 672.018 351.222C671.784 351.349 671.491 351.263 671.363 351.029L669.906 348.361C669.778 348.127 669.864 347.834 670.098 347.706Z" fill="#98EED5" stroke="#265F58" stroke-width="1"></path>
<path fill-rule="evenodd" clip-rule="evenodd" d="M671.432 346.977C671.666 346.849 671.96 346.935 672.087 347.169L673.544 349.838C673.672 350.072 673.586 350.365 673.352 350.493C673.118 350.62 672.825 350.534 672.697 350.3L671.24 347.632C671.112 347.398 671.198 347.104 671.432 346.977Z" fill="#98EED5" stroke="#265F58" stroke-width="1"></path>
<path fill-rule="evenodd" clip-rule="evenodd" d="M672.849 331.285C672.917 331.543 672.762 331.807 672.505 331.874L669.563 332.644C669.305 332.711 669.041 332.557 668.974 332.299C668.906 332.041 669.061 331.777 669.319 331.71L672.26 330.94C672.518 330.873 672.782 331.027 672.849 331.285Z" fill="#98EED5" stroke="#265F58" stroke-width="1"></path>
<path fill-rule="evenodd" clip-rule="evenodd" d="M673.234 332.756C673.302 333.014 673.147 333.278 672.889 333.345L669.948 334.115C669.69 334.182 669.426 334.028 669.359 333.77C669.291 333.512 669.446 333.248 669.703 333.181L672.645 332.411C672.903 332.344 673.167 332.498 673.234 332.756Z" fill="#98EED5" stroke="#265F58" stroke-width="1"></path>
<path d="M677.552 330.846L680.505 333.463L676.762 334.712L677.552 330.846Z" fill="#98EED5" stroke="#265F58" stroke-width="1"></path>
<path d="M669.679 357.574L669.963 360.676L667.134 359.371L669.679 357.574Z" fill="#98EED5" stroke="#265F58" stroke-width="1"></path>
<path d="M666.768 339.507L667.052 342.609L664.224 341.304L666.768 339.507Z" fill="#98EED5" stroke="#265F58" stroke-width="1"></path>
<path d="M657.588 322.7L655.173 324.668L654.676 321.593L657.588 322.7Z" fill="#98EED5" stroke="#265F58" stroke-width="1"></path>
<path d="M682.111 316.159L679.696 318.127L679.199 315.052L682.111 316.159Z" fill="#98EED5" stroke="#265F58" stroke-width="1"></path>
<path d="M665.932 313.779L663.533 314.165L664.399 311.894L665.932 313.779Z" fill="#98EED5" stroke="#265F58" stroke-width="1"></path>
<path d="M639.269 286.352C639.269 286.352 644.916 278.401 662.947 280.637C664.249 306.678 685.079 309.095 683.748 333.73C683.071 346.259 672.421 358.225 676.099 366.959C679.776 375.694 689.646 368.718 701.572 368.718C713.46 368.718 732.038 380.266 736.175 380.266C740.313 380.266 736.175 364.362 728.68 358.527C722.471 353.694 724.083 327.268 719.027 316.235C713.97 305.203 708.093 312.453 695.965 284.336C689.798 270.04 677.562 250.656 666.182 256.757C636.939 249.193 639.269 286.352 639.269 286.352Z" fill="none" stroke="#265F58" stroke-width="1"></path>
<path d="M689.114 110.669C689.114 110.669 688.739 110.149 687.527 110.496C687.933 109.511 689.114 108.477 689.921 108.477L691.017 111.62C689.027 112.053 688.416 111.874 687.787 112.053C687.986 110.705 689.114 110.669 689.114 110.669Z" fill="#98EED5" stroke="#265F58" stroke-width="1"></path>
<path d="M691.179 99.4902L692.33 106.55L696.762 104.15L691.179 99.4902Z" fill="#98EED5" stroke="#265F58" stroke-width="1"></path>
<path d="M690.775 111.803C689.557 111.615 686.702 112.786 688.187 114.17H694.164C693.637 113.447 691.994 111.991 690.775 111.803Z" fill="#98EED5" stroke="#265F58" stroke-width="1"></path>
<path d="M703.594 109.034C703.594 114.857 713.776 113.975 722.811 113.975C727.34 113.975 729.4 115.102 732.618 110.249C733.719 108.587 733.279 103.175 728.261 100.762C720.077 96.8265 702.349 103.711 703.594 109.034Z" fill="#98EED5" stroke="#265F58" stroke-width="1"></path>
<path d="M689.26 110.47C689.26 114.665 695.593 114.15 702.102 114.15C708.611 114.15 710.128 114.665 710.128 110.47C710.128 106.275 707.2 102.776 700.691 102.776C694.182 102.776 689.26 106.275 689.26 110.47Z" fill="#98EED5" stroke="#265F58" stroke-width="1"></path>
<path fill-rule="evenodd" clip-rule="evenodd" d="M729.125 108.7C729.258 108.07 729.876 107.668 730.505 107.801C731.07 107.921 731.651 108.027 732.244 108.135C732.485 108.179 732.728 108.223 732.973 108.269C733.8 108.423 734.642 108.593 735.38 108.811C736.092 109.022 736.847 109.315 737.404 109.785C737.697 110.032 737.968 110.356 738.13 110.773C738.296 111.201 738.318 111.651 738.221 112.093C738.04 112.922 737.65 113.565 737.009 113.964C736.44 114.318 735.807 114.382 735.427 114.419C735.374 114.424 735.323 114.429 735.276 114.433C734.908 114.468 734.719 114.485 734.547 114.548C734.437 114.587 734.344 114.639 734.241 114.839C734.009 115.29 734.071 115.452 734.104 115.539L734.104 115.54C734.139 115.63 734.203 115.746 734.328 115.924C734.39 116.012 734.458 116.104 734.54 116.212L734.556 116.234C734.631 116.333 734.716 116.446 734.801 116.565C735.175 117.087 735.606 117.787 735.764 118.772C735.922 119.749 735.794 120.885 735.284 122.279C735.063 122.883 734.394 123.194 733.79 122.973C733.186 122.752 732.875 122.083 733.096 121.478C733.51 120.348 733.542 119.624 733.464 119.143C733.388 118.67 733.189 118.314 732.908 117.923C732.838 117.826 732.768 117.733 732.69 117.629L732.677 117.612C732.597 117.505 732.508 117.387 732.423 117.265C732.253 117.024 732.062 116.724 731.927 116.368C731.621 115.563 731.687 114.712 732.169 113.775C732.559 113.016 733.13 112.581 733.758 112.355C734.234 112.184 734.749 112.139 735.078 112.111C735.124 112.107 735.167 112.103 735.205 112.1C735.605 112.061 735.725 112.019 735.778 111.986C735.787 111.98 735.801 111.971 735.824 111.936C735.851 111.894 735.9 111.797 735.943 111.605C735.933 111.594 735.92 111.581 735.901 111.565C735.727 111.418 735.359 111.234 734.72 111.046C734.107 110.864 733.368 110.713 732.546 110.559C732.323 110.517 732.093 110.476 731.86 110.433C731.254 110.323 730.622 110.207 730.023 110.081C729.394 109.947 728.991 109.329 729.125 108.7ZM735.965 111.631C735.965 111.631 735.965 111.63 735.964 111.63L735.965 111.631Z" fill="#98EED5" stroke="#265F58" stroke-width="1"></path>
<path d="M704.941 98.2246C704.941 98.2246 705.607 105.767 704.941 106.053C704.275 106.339 704.578 104.271 699.918 104.046L704.941 98.2246Z" fill="#98EED5" stroke="#265F58" stroke-width="1"></path>
<path fill-rule="evenodd" clip-rule="evenodd" d="M692.792 108.805C692.899 108.813 692.979 108.906 692.971 109.013C692.943 109.381 692.986 109.921 693.193 110.348C693.295 110.558 693.434 110.734 693.617 110.853C693.797 110.97 694.034 111.039 694.35 111.018C694.457 111.011 694.549 111.092 694.556 111.199C694.564 111.305 694.483 111.398 694.376 111.405C693.985 111.432 693.664 111.346 693.405 111.178C693.149 111.012 692.969 110.775 692.844 110.517C692.596 110.008 692.552 109.393 692.584 108.983C692.592 108.877 692.685 108.797 692.792 108.805Z" fill="#98EED5" stroke="#265F58" stroke-width="1"></path>
<path fill-rule="evenodd" clip-rule="evenodd" d="M692.746 108.805C692.639 108.813 692.559 108.906 692.567 109.013C692.595 109.381 692.552 109.921 692.345 110.348C692.243 110.558 692.104 110.734 691.922 110.853C691.741 110.97 691.504 111.039 691.189 111.018C691.082 111.011 690.989 111.092 690.982 111.199C690.975 111.305 691.055 111.398 691.162 111.405C691.553 111.432 691.874 111.346 692.133 111.178C692.389 111.012 692.57 110.775 692.695 110.517C692.942 110.008 692.986 109.393 692.954 108.983C692.946 108.877 692.853 108.797 692.746 108.805Z" fill="#98EED5" stroke="#265F58" stroke-width="1"></path>
<path d="M692.748 109.806C692.26 109.806 692.841 109.423 691.687 108.983C691.328 108.734 692.01 108.161 693.017 108.161C693.949 108.161 694.683 108.903 694.142 108.983C693.273 109.111 693.233 109.806 692.748 109.806Z" fill="#98EED5" stroke="#265F58" stroke-width="1"></path>
<path fill-rule="evenodd" clip-rule="evenodd" d="M695.882 108.019C695.944 107.931 696.065 107.909 696.153 107.971C696.483 108.201 697.166 108.44 697.962 107.963C698.054 107.908 698.173 107.938 698.228 108.03C698.283 108.122 698.253 108.242 698.161 108.297C697.204 108.869 696.356 108.586 695.931 108.289C695.843 108.228 695.821 108.107 695.882 108.019Z" fill="#98EED5" stroke="#265F58" stroke-width="1"></path>
<path fill-rule="evenodd" clip-rule="evenodd" d="M689.182 107.597C689.243 107.509 689.364 107.487 689.452 107.548C689.783 107.779 690.465 108.017 691.261 107.541C691.353 107.486 691.473 107.516 691.528 107.608C691.583 107.7 691.553 107.819 691.461 107.874C690.504 108.447 689.655 108.163 689.23 107.867C689.142 107.806 689.121 107.685 689.182 107.597Z" fill="#98EED5" stroke="#265F58" stroke-width="1"></path>
<path d="M708.335 112.027C707.294 111.867 706.121 112.986 707.063 113.756C708.29 114.76 710.753 114.032 711.268 113.756C710.817 113.138 709.377 112.187 708.335 112.027Z" fill="#98EED5" stroke="#265F58" stroke-width="1"></path>
<path d="M730.525 113.892C729.238 114.785 722.15 114.331 719.772 113.923L717.706 112.15C719.612 112.12 723.619 111.971 724.406 111.614C725.192 111.257 722.254 109.17 722.281 107.288C722.335 103.413 728.51 100.071 731.597 103.867C733.139 105.763 733.243 107.281 733.139 109.291C732.946 110.348 731.811 112.999 730.525 113.892Z" fill="#98EED5" stroke="#265F58" stroke-width="1"></path>
<path d="M717.414 111.767C716.195 111.58 714.645 113.43 715.625 113.993C715.625 113.993 716.82 114.118 717.588 114.132C718.626 114.151 720.242 113.993 720.242 113.993C720.242 113.217 718.633 111.955 717.414 111.767Z" fill="#98EED5" stroke="#265F58" stroke-width="1"></path>
<path d="M694.83 109.921C694.822 109.975 694.858 110.025 694.912 110.034C694.966 110.043 695.017 110.006 695.025 109.952C695.034 109.899 694.998 109.848 694.944 109.839C694.89 109.83 694.839 109.867 694.83 109.921Z" fill="#98EED5" stroke="#265F58" stroke-width="1"></path>
<path d="M693.839 110.01C693.831 110.063 693.867 110.114 693.921 110.123C693.975 110.132 694.026 110.095 694.034 110.041C694.043 109.988 694.007 109.937 693.953 109.928C693.899 109.919 693.848 109.956 693.839 110.01Z" fill="#98EED5" stroke="#265F58" stroke-width="1"></path>
<path d="M693.877 109.456C693.868 109.51 693.905 109.561 693.959 109.57C694.013 109.579 694.063 109.542 694.072 109.488C694.081 109.434 694.044 109.384 693.99 109.375C693.937 109.366 693.886 109.402 693.877 109.456Z" fill="#98EED5" stroke="#265F58" stroke-width="1"></path>
<path d="M694.437 109.498C694.428 109.552 694.465 109.603 694.518 109.612C694.572 109.621 694.623 109.584 694.632 109.53C694.641 109.476 694.604 109.426 694.55 109.417C694.496 109.408 694.446 109.444 694.437 109.498Z" fill="#98EED5" stroke="#265F58" stroke-width="1"></path>
<path d="M693.29 109.92C693.281 109.974 693.317 110.025 693.371 110.034C693.425 110.042 693.476 110.006 693.485 109.952C693.493 109.898 693.457 109.847 693.403 109.839C693.349 109.83 693.298 109.866 693.29 109.92Z" fill="#98EED5" stroke="#265F58" stroke-width="1"></path>
<path d="M694.054 110.62C694.045 110.674 694.081 110.725 694.135 110.734C694.189 110.743 694.24 110.706 694.249 110.652C694.257 110.598 694.221 110.548 694.167 110.539C694.113 110.53 694.062 110.567 694.054 110.62Z" fill="#98EED5" stroke="#265F58" stroke-width="1"></path>
<path d="M693.477 110.475C693.468 110.529 693.505 110.58 693.559 110.588C693.612 110.597 693.663 110.561 693.672 110.507C693.681 110.453 693.644 110.402 693.59 110.393C693.537 110.385 693.486 110.421 693.477 110.475Z" fill="#98EED5" stroke="#265F58" stroke-width="1"></path>
<path d="M694.779 110.538C694.77 110.592 694.807 110.643 694.86 110.652C694.914 110.661 694.965 110.624 694.974 110.57C694.983 110.516 694.946 110.466 694.892 110.457C694.838 110.448 694.788 110.485 694.779 110.538Z" fill="#98EED5" stroke="#265F58" stroke-width="1"></path>
<path fill-rule="evenodd" clip-rule="evenodd" d="M699.2 110.407C697.214 110.022 695.252 109.889 693.916 110.088C693.895 110.091 693.875 110.077 693.872 110.056C693.869 110.034 693.883 110.015 693.905 110.011C695.253 109.811 697.225 109.945 699.214 110.331C701.204 110.718 703.217 111.357 704.647 112.169C704.666 112.18 704.672 112.204 704.662 112.222C704.651 112.241 704.628 112.247 704.609 112.237C703.189 111.43 701.185 110.793 699.2 110.407Z" fill="#98EED5" stroke="#265F58" stroke-width="1"></path>
<path fill-rule="evenodd" clip-rule="evenodd" d="M699.193 109.573C697.172 109.49 695.213 109.653 693.922 110.05C693.901 110.056 693.88 110.045 693.873 110.024C693.867 110.004 693.878 109.982 693.899 109.976C695.202 109.575 697.172 109.412 699.197 109.496C701.222 109.579 703.308 109.909 704.844 110.498C704.864 110.506 704.874 110.528 704.866 110.548C704.858 110.568 704.836 110.578 704.816 110.571C703.291 109.986 701.214 109.657 699.193 109.573Z" fill="#98EED5" stroke="#265F58" stroke-width="1"></path>
<path d="M690.726 109.814C690.726 109.869 690.681 109.913 690.627 109.913C690.572 109.913 690.528 109.869 690.528 109.814C690.528 109.76 690.572 109.715 690.627 109.715C690.681 109.715 690.726 109.76 690.726 109.814Z" fill="#98EED5" stroke="#265F58" stroke-width="1"></path>
<path d="M691.689 110.061C691.689 110.116 691.645 110.16 691.591 110.16C691.536 110.16 691.492 110.116 691.492 110.061C691.492 110.007 691.536 109.962 691.591 109.962C691.645 109.962 691.689 110.007 691.689 110.061Z" fill="#98EED5" stroke="#265F58" stroke-width="1"></path>
<path d="M691.741 109.508C691.741 109.563 691.697 109.607 691.643 109.607C691.588 109.607 691.544 109.563 691.544 109.508C691.544 109.454 691.588 109.41 691.643 109.41C691.697 109.41 691.741 109.454 691.741 109.508Z" fill="#98EED5" stroke="#265F58" stroke-width="1"></path>
<path d="M691.182 109.46C691.182 109.515 691.138 109.559 691.083 109.559C691.029 109.559 690.985 109.515 690.985 109.46C690.985 109.406 691.029 109.361 691.083 109.361C691.138 109.361 691.182 109.406 691.182 109.46Z" fill="#98EED5" stroke="#265F58" stroke-width="1"></path>
<path d="M692.247 110.061C692.247 110.116 692.202 110.16 692.148 110.16C692.093 110.16 692.049 110.116 692.049 110.061C692.049 110.007 692.093 109.962 692.148 109.962C692.202 109.962 692.247 110.007 692.247 110.061Z" fill="#98EED5" stroke="#265F58" stroke-width="1"></path>
<path d="M691.38 110.63C691.38 110.684 691.336 110.728 691.281 110.728C691.226 110.728 691.182 110.684 691.182 110.63C691.182 110.575 691.226 110.531 691.281 110.531C691.336 110.531 691.38 110.575 691.38 110.63Z" fill="#98EED5" stroke="#265F58" stroke-width="1"></path>
<path d="M691.972 110.579C691.972 110.633 691.928 110.678 691.873 110.678C691.819 110.678 691.775 110.633 691.775 110.579C691.775 110.524 691.819 110.48 691.873 110.48C691.928 110.48 691.972 110.524 691.972 110.579Z" fill="#98EED5" stroke="#265F58" stroke-width="1"></path>
<path d="M690.677 110.432C690.677 110.487 690.633 110.531 690.578 110.531C690.524 110.531 690.48 110.487 690.48 110.432C690.48 110.378 690.524 110.333 690.578 110.333C690.633 110.333 690.677 110.378 690.677 110.432Z" fill="#98EED5" stroke="#265F58" stroke-width="1"></path>
<path fill-rule="evenodd" clip-rule="evenodd" d="M686.301 110.447C688.287 110.061 690.249 109.928 691.585 110.127C691.606 110.13 691.626 110.116 691.629 110.095C691.632 110.073 691.617 110.054 691.596 110.051C690.248 109.85 688.276 109.984 686.286 110.37C684.297 110.757 682.284 111.396 680.854 112.208C680.835 112.219 680.828 112.243 680.839 112.261C680.85 112.28 680.873 112.287 680.892 112.276C682.312 111.469 684.316 110.832 686.301 110.447Z" fill="#98EED5" stroke="#265F58" stroke-width="1"></path>
<path fill-rule="evenodd" clip-rule="evenodd" d="M686.307 109.612C688.328 109.529 690.288 109.692 691.579 110.089C691.6 110.095 691.621 110.084 691.628 110.063C691.634 110.043 691.622 110.021 691.602 110.015C690.299 109.614 688.329 109.451 686.304 109.535C684.279 109.618 682.193 109.948 680.657 110.537C680.637 110.545 680.627 110.567 680.635 110.587C680.642 110.607 680.665 110.617 680.685 110.61C682.21 110.025 684.287 109.696 686.307 109.612Z" fill="#98EED5" stroke="#265F58" stroke-width="1"></path>
<path d="M619.123 103.477C618.367 108.456 613.717 111.879 608.738 111.122C603.759 110.366 600.336 105.716 601.093 100.737C601.849 95.7584 606.499 92.3355 611.478 93.0921C616.457 93.8488 619.88 98.4983 619.123 103.477Z" fill="#98EED5" stroke="#265F58" stroke-width="1"></path>
<path d="M617.608 104.071C614.358 100.835 602.876 100.181 597.541 100.259C595.91 97.006 600.503 88.1811 611.961 87.934C621.128 87.7364 624.835 98.6074 624.274 104.566C623.406 105.749 620.857 107.307 617.608 104.071Z" fill="#98EED5" stroke="#265F58" stroke-width="1"></path>
<path d="M600.419 119.172C601.084 116.008 603.874 113.743 607.107 113.743C611.447 113.743 614.688 117.735 613.796 121.981L612.535 127.984C611.871 131.148 609.08 133.414 605.847 133.414C601.507 133.414 598.075 134.503 598.967 130.256L600.419 119.172Z" fill="#98EED5" stroke="#265F58" stroke-width="1"></path>
<path d="M359.729 324.299L363.451 332.018L371.17 335.739L363.451 339.461L359.729 347.18L356.008 339.461L348.289 335.739L356.008 332.018L359.729 324.299Z" fill="black" fill-opacity="0.45" stroke="#265F58" stroke-width="1"></path>
<path d="M464.053 324.299L467.774 332.018L475.493 335.739L467.774 339.461L464.053 347.18L460.331 339.461L452.612 335.739L460.331 332.018L464.053 324.299Z" fill="black" fill-opacity="0.45" stroke="#265F58" stroke-width="1"></path>
<path d="M568.375 324.299L572.097 332.018L579.816 335.739L572.097 339.461L568.375 347.18L564.654 339.461L556.935 335.739L564.654 332.018L568.375 324.299Z" fill="black" fill-opacity="0.45" stroke="#265F58" stroke-width="1"></path>
<path fill-rule="evenodd" clip-rule="evenodd" d="M599.831 119.538C596.956 121.559 594.694 124.491 594.131 127.982C593.962 129.034 592.971 129.75 591.918 129.58C590.865 129.41 590.149 128.419 590.319 127.367C591.091 122.579 594.136 118.821 597.611 116.379C601.045 113.965 605.207 112.621 608.565 113.005C613.602 113.58 616.724 117.482 618.617 121.021C620.092 123.777 621.057 126.81 621.59 128.487C621.738 128.951 621.852 129.311 621.935 129.533C622.31 130.531 621.804 131.644 620.806 132.018C619.807 132.393 618.694 131.887 618.32 130.889C618.162 130.468 617.992 129.936 617.796 129.322C617.246 127.6 616.489 125.228 615.212 122.842C613.491 119.625 611.215 117.194 608.127 116.841C605.977 116.596 602.746 117.489 599.831 119.538Z" fill="#98EED5" stroke="#265F58" stroke-width="1"></path>
<path fill-rule="evenodd" clip-rule="evenodd" d="M605.449 119.673L607.537 109.38L611.321 110.148L609.233 120.44L605.449 119.673Z" fill="#98EED5" stroke="#265F58" stroke-width="1"></path>
<path d="M54.9388 241.112L60.7317 238.757L79.4146 284.698L73.6217 287.054L54.9388 241.112Z" fill="none" stroke="#265F58" stroke-width="1"></path>
<path d="M46.9816 240.967L53.8951 239.907L60.9653 285.993L54.0517 287.054L46.9816 240.967Z" fill="none" stroke="#265F58" stroke-width="1"></path>
<path fill-rule="evenodd" clip-rule="evenodd" d="M447.355 215.942C447.442 215.689 447.716 215.555 447.968 215.641L452.937 217.343L448.836 220.387L452.069 221.494C452.321 221.58 452.455 221.855 452.369 222.107C452.283 222.359 452.008 222.494 451.756 222.407L446.788 220.705L450.888 217.662L447.656 216.555C447.403 216.468 447.269 216.194 447.355 215.942Z" fill="#B2B2B2" stroke="#265F58" stroke-width="1"></path>
<path fill-rule="evenodd" clip-rule="evenodd" d="M451.618 204.861C451.772 204.643 452.073 204.591 452.291 204.744L455.578 207.055L452.154 208.327L453.94 209.583C454.158 209.736 454.211 210.037 454.058 210.255C453.904 210.473 453.603 210.526 453.385 210.372L450.098 208.062L453.522 206.789L451.736 205.534C451.518 205.381 451.465 205.08 451.618 204.861Z" fill="#C8C8C8" stroke="#265F58" stroke-width="1"></path>
<path fill-rule="evenodd" clip-rule="evenodd" d="M462.585 204.581C462.739 204.363 463.04 204.31 463.258 204.463L466.545 206.774L463.121 208.047L464.907 209.302C465.125 209.455 465.178 209.756 465.025 209.974C464.871 210.192 464.57 210.245 464.352 210.092L461.065 207.781L464.489 206.508L462.703 205.253C462.485 205.1 462.432 204.799 462.585 204.581Z" fill="#C8C8C8" stroke="#265F58" stroke-width="1"></path>
<path fill-rule="evenodd" clip-rule="evenodd" d="M457.124 191.941C457.277 191.723 457.578 191.67 457.796 191.824L460.708 193.87L457.791 194.954L459.201 195.945C459.419 196.098 459.472 196.399 459.319 196.618C459.165 196.836 458.864 196.888 458.646 196.735L455.735 194.689L458.651 193.604L457.241 192.613C457.023 192.46 456.971 192.159 457.124 191.941Z" fill="#D9D9D9" stroke="#265F58" stroke-width="1"></path>
<path fill-rule="evenodd" clip-rule="evenodd" d="M448.412 181.577C448.565 181.359 448.866 181.306 449.084 181.459L451.995 183.506L449.079 184.59L450.489 185.581C450.707 185.734 450.76 186.035 450.606 186.253C450.453 186.471 450.152 186.524 449.934 186.371L447.022 184.324L449.939 183.24L448.529 182.249C448.311 182.096 448.258 181.795 448.412 181.577Z" fill="#D9D9D9" stroke="#265F58" stroke-width="1"></path>
<path fill-rule="evenodd" clip-rule="evenodd" d="M469.535 193.689C469.688 193.47 469.989 193.418 470.207 193.571L473.119 195.618L470.202 196.702L471.612 197.693C471.83 197.846 471.883 198.147 471.73 198.365C471.576 198.583 471.275 198.636 471.057 198.482L468.146 196.436L471.062 195.352L469.652 194.361C469.434 194.208 469.382 193.907 469.535 193.689Z" fill="#D9D9D9" stroke="#265F58" stroke-width="1"></path>
<path d="M531.576 305.769C530.339 305.683 529.326 305.866 528.857 306.422C528.793 306.52 528.732 306.619 528.675 306.718C528.51 307.108 528.542 307.626 528.831 308.294L554.244 367.007C554.776 368.237 556.205 368.803 557.435 368.27C558.167 367.954 558.663 367.32 558.834 366.6C550.392 346.937 534.355 310.119 531.576 305.769Z" fill="none" stroke="#265F58" stroke-width="1"></path>
</svg>