<svg width="500" height="500" viewBox="0 0 500 500" fill="none" xmlns="http://www.w3.org/2000/svg">
<g clip-path="url(#clip0)">
<path d="M409.129 388.104C402.377 391.704 384.823 398.456 350.165 396.656C313.707 394.855 282.65 379.102 266.446 369.199C260.145 365.148 254.744 361.097 248.892 357.046C234.489 346.694 240.34 330.941 242.141 326.89C243.941 322.839 246.287 317.389 247.992 312.036C267.346 251.272 238.99 196.36 171.475 164.403C147.619 153.15 144.018 142.798 144.468 135.596C144.468 135.596 143.568 113.091 171.025 111.741C190.811 109.856 200.593 120.428 200.731 130.195C200.164 146.548 211.084 161.252 227.737 163.052C244.391 164.853 258.795 152.7 260.595 136.046C264.646 95.987 231.788 61.7792 184.077 56.828C139.067 52.327 99.4582 74.8322 88.2056 112.191C83.2545 128.394 72.452 184.207 145.819 218.865C180.477 235.069 196.23 256.224 193.53 282.329C192.629 288.631 189.929 297.633 183.177 298.533C174.175 298.983 168.774 286.83 168.774 286.83C161.122 267.026 149.618 252.697 141.318 245.871C105.31 215.714 71.5518 224.266 60.7494 228.317C31.9428 239.12 13.9387 267.926 16.1892 299.433C18.4397 323.739 29.6923 345.794 48.1465 362.448C49.9469 364.248 96.7576 403.857 164.723 382.702C164.723 382.702 184.528 378.201 197.13 391.704C201.632 395.755 206.133 399.806 209.283 402.057C277.235 455.019 383.676 473.01 439.286 453.368C451.379 449.023 460.952 438.436 464.041 429.513C475.723 394.469 438.926 374.081 409.129 388.104ZM130.065 330.49C123.314 338.592 106.21 335.892 91.8064 324.189C58.7002 296.256 82.7494 267.085 116.112 294.032C130.515 306.185 136.817 322.389 130.065 330.49Z" fill="#16DB65"/>
<path d="M463.396 226.449C448.093 223.299 433.24 233.201 430.089 248.504C430.089 248.504 427.358 257.388 423.337 284.062C418.836 304.317 400.832 319.17 380.578 319.17C366.624 319.17 353.121 313.319 343.669 303.417C326.952 286.699 328.776 261.161 336.017 240.402C341.269 222.02 356.875 206.184 371.575 194.942C383.278 186.84 397.231 175.588 408.484 161.184C417.036 149.932 423.337 137.779 427.388 126.076C427.838 125.626 427.838 125.176 427.838 124.726C432.339 111.673 433.69 99.5204 432.339 88.2678C429.189 63.5122 412.535 45.508 389.129 41.007C365.724 36.9561 345.019 41.9072 328.366 56.3105C286.202 93.4145 291.49 169.102 282.455 219.698C273.812 262.915 268.505 306.33 302.71 342.126C322.964 363.28 351.321 375.433 380.578 375.433C426.938 375.433 468.347 342.126 478.25 295.765C480.353 286.44 483.386 263.933 484.101 259.307C487.252 244.003 478.7 229.15 463.396 226.449ZM345.92 114.374C354.021 97.7199 365.274 89.168 376.076 94.5692C385.979 99.9704 384.178 115.274 373.826 130.577C364.374 144.981 350.421 155.333 342.769 150.832C335.117 146.781 338.718 130.127 345.92 114.374Z" fill="#16DB65"/>
</g>
<defs>
<clipPath id="clip0">
<rect width="468.75" height="468.75" fill="white" transform="translate(16 16)"/>
</clipPath>
</defs>
</svg>
